<svg width="16" height="11" viewBox="0 0 16 11" fill="none" xmlns="http://www.w3.org/2000/svg">
<path d="M2.926 4.876C2.478 4.876 2.06267 4.77333 1.68 4.568C1.30667 4.35333 1.008 4.064 0.784 3.7C0.569333 3.32667 0.462 2.92067 0.462 2.482C0.462 2.04333 0.569333 1.642 0.784 1.278C1.008 0.904666 1.30667 0.610666 1.68 0.395999C2.06267 0.181333 2.478 0.0739993 2.926 0.0739993C3.374 0.0739993 3.78467 0.181333 4.158 0.395999C4.53133 0.610666 4.82533 0.904666 5.04 1.278C5.264 1.642 5.376 2.04333 5.376 2.482C5.376 2.92067 5.264 3.32667 5.04 3.7C4.82533 4.064 4.53133 4.35333 4.158 4.568C3.78467 4.77333 3.374 4.876 2.926 4.876ZM2.926 3.798C3.29933 3.798 3.60733 3.672 3.85 3.42C4.102 3.168 4.228 2.85533 4.228 2.482C4.228 2.10867 4.102 1.796 3.85 1.544C3.60733 1.292 3.29933 1.166 2.926 1.166C2.55267 1.166 2.24 1.292 1.988 1.544C1.74533 1.796 1.624 2.10867 1.624 2.482C1.624 2.85533 1.74533 3.168 1.988 3.42C2.24 3.672 2.55267 3.798 2.926 3.798ZM11.8403 10.168C10.8416 10.168 9.93628 9.95333 9.12428 9.524C8.32161 9.08533 7.68695 8.48333 7.22028 7.718C6.76295 6.94333 6.53428 6.07067 6.53428 5.1C6.53428 4.12933 6.76295 3.26133 7.22028 2.496C7.68695 1.72133 8.32161 1.11933 9.12428 0.69C9.93628 0.251333 10.8463 0.0319998 11.8543 0.0319998C12.7036 0.0319998 13.4689 0.181333 14.1503 0.48C14.8409 0.778667 15.4196 1.208 15.8863 1.768L14.4303 3.112C13.7676 2.34667 12.9463 1.964 11.9663 1.964C11.3596 1.964 10.8183 2.09933 10.3423 2.37C9.86628 2.63133 9.49295 3 9.22228 3.476C8.96095 3.952 8.83028 4.49333 8.83028 5.1C8.83028 5.70667 8.96095 6.248 9.22228 6.724C9.49295 7.2 9.86628 7.57333 10.3423 7.844C10.8183 8.10533 11.3596 8.236 11.9663 8.236C12.9463 8.236 13.7676 7.84867 14.4303 7.074L15.8863 8.418C15.4196 8.98733 14.8409 9.42133 14.1503 9.72C13.4596 10.0187 12.6896 10.168 11.8403 10.168Z" fill="white"/>
</svg>
