<svg width="15" height="10" viewBox="0 0 15 10" fill="none" xmlns="http://www.w3.org/2000/svg">
<path d="M2.926 4.876C2.478 4.876 2.06267 4.77333 1.68 4.568C1.30667 4.35333 1.008 4.064 0.784 3.7C0.569333 3.32667 0.462 2.92067 0.462 2.482C0.462 2.04333 0.569333 1.642 0.784 1.278C1.008 0.904666 1.30667 0.610666 1.68 0.395999C2.06267 0.181333 2.478 0.0739993 2.926 0.0739993C3.374 0.0739993 3.78467 0.181333 4.158 0.395999C4.53133 0.610666 4.82533 0.904666 5.04 1.278C5.264 1.642 5.376 2.04333 5.376 2.482C5.376 2.92067 5.264 3.32667 5.04 3.7C4.82533 4.064 4.53133 4.35333 4.158 4.568C3.78467 4.77333 3.374 4.876 2.926 4.876ZM2.926 3.798C3.29933 3.798 3.60733 3.672 3.85 3.42C4.102 3.168 4.228 2.85533 4.228 2.482C4.228 2.10867 4.102 1.796 3.85 1.544C3.60733 1.292 3.29933 1.166 2.926 1.166C2.55267 1.166 2.24 1.292 1.988 1.544C1.74533 1.796 1.624 2.10867 1.624 2.482C1.624 2.85533 1.74533 3.168 1.988 3.42C2.24 3.672 2.55267 3.798 2.926 3.798ZM9.28156 2.02V4.61H13.8176V6.43H9.28156V10H7.01356V0.199999H14.4196V2.02H9.28156Z" fill="white" fill-opacity="0.4"/>
</svg>
